<svg width="193" height="175" viewBox="0 0 193 175" fill="none" xmlns="http://www.w3.org/2000/svg">
<path d="M16.5426 28.0674C19.0012 20.3452 24.0248 13.6401 26.2293 11.2529C39.5185 -0.330494 52.5276 3.70189 62.37 11.2529L183.163 132.108C147.217 134.041 68.9835 133.727 43.6189 117.006C19.4301 101.06 14.601 63.2975 15.0355 42.0017M16.5426 28.0674L3.78244 42.0017H15.0355M16.5426 28.0674C15.8139 30.356 15.1706 35.3838 15.0355 42.0017" stroke="#1C361C" stroke-width="7.36314" stroke-linejoin="round"/>
<path d="M158.421 133.275L190.516 164.608C185.484 168.734 173.414 175.748 165.384 170.797C157.355 165.846 134.47 143.72 124.031 133.275" stroke="#1C361C" stroke-width="4.61272" stroke-linejoin="round"/>
<path d="M170.325 118.407C157.824 118.653 126.894 116.142 112.049 98.8289C97.2036 81.5161 96.8379 58.6089 98.5107 49.3193" stroke="#1C361C" stroke-width="4.60196" stroke-linejoin="round"/>
<path d="M170.325 132.984C155.191 133.282 100.455 128.669 82.4828 107.703C64.5105 86.7375 88.0459 53.3672 95.0873 45.0767" stroke="#1C361C" stroke-width="4.60196" stroke-linejoin="round"/>
<path d="M95.9433 130.628L104.735 146.587" stroke="#1C361C" stroke-width="4.60196" stroke-linecap="round" stroke-linejoin="round"/>
<path d="M88.3955 129.811L82.5212 139.853" stroke="#1C361C" stroke-width="4.60196" stroke-linecap="round" stroke-linejoin="round"/>
<ellipse cx="5.21298" cy="5.21563" rx="5.21298" ry="5.21563" transform="matrix(-1 0 0 1 45.1357 30.1694)" fill="#1C361C"/>
<path d="M144.533 134.871L180.323 169.824" stroke="#1C361C" stroke-width="2.71337" stroke-linecap="round" stroke-linejoin="round"/>
</svg>
