<svg width="1349" height="1323" viewBox="0 0 1349 1323" fill="none" xmlns="http://www.w3.org/2000/svg">
<g opacity="0.1">
<path d="M128.664 213.964C147.175 155.756 184.998 105.215 201.596 87.2205C301.651 -0.0913844 399.597 30.3035 473.7 87.2205L1383.16 998.186C1112.52 1012.76 523.493 1010.39 332.522 884.352C150.404 764.156 114.046 479.517 117.317 318.996M128.664 213.964L32.5923 318.996H117.317M128.664 213.964C123.178 231.214 118.334 269.112 117.317 318.996" stroke="#1C361C" stroke-width="64.6266" stroke-linejoin="round"/>
<path d="M1196.87 1006.99L1438.52 1243.16C1400.63 1274.26 1309.76 1327.13 1249.3 1289.81C1188.85 1252.49 1016.54 1085.71 937.949 1006.99" stroke="#1C361C" stroke-width="40.486" stroke-linejoin="round"/>
<path d="M1286.5 894.914C1192.38 896.773 959.506 877.839 847.735 747.341C735.964 616.842 733.211 444.174 745.806 374.153" stroke="#1C361C" stroke-width="40.3916" stroke-linejoin="round"/>
<path d="M1286.5 1004.79C1172.56 1007.04 760.444 972.266 625.131 814.233C489.817 656.2 667.016 404.665 720.031 342.174" stroke="#1C361C" stroke-width="40.3916" stroke-linejoin="round"/>
<path d="M726.475 987.038L792.67 1107.33" stroke="#1C361C" stroke-width="40.3916" stroke-linecap="round" stroke-linejoin="round"/>
<path d="M669.651 980.877L625.423 1056.57" stroke="#1C361C" stroke-width="40.3916" stroke-linecap="round" stroke-linejoin="round"/>
<ellipse cx="39.2487" cy="39.3138" rx="39.2487" ry="39.3138" transform="matrix(-1 0 0 1 343.946 229.807)" fill="#1C361C"/>
<path d="M1092.31 1019.02L1361.78 1282.48" stroke="#1C361C" stroke-width="23.8153" stroke-linecap="round" stroke-linejoin="round"/>
</g>
</svg>
