<svg width="55" height="50" viewBox="0 0 55 50" fill="none" xmlns="http://www.w3.org/2000/svg">
<path d="M49.4809 8.22921C48.7957 6.07726 47.3958 4.20876 46.7815 3.54351C43.0782 0.315577 39.4529 1.43928 36.7102 3.54351L3.04883 37.222C13.0659 37.7607 34.8672 37.6732 41.9355 33.0136C48.6762 28.5699 50.0219 18.0468 49.9008 12.1123M49.4809 8.22921L53.0367 12.1123H49.9008M49.4809 8.22921C49.6839 8.86696 49.8632 10.268 49.9008 12.1123" stroke="white" stroke-width="2.05188" stroke-linejoin="round"/>
<path d="M9.94383 37.5474L1 46.2788C2.4021 47.4286 5.76571 49.3831 8.00329 48.0034C10.2409 46.6237 16.6183 40.4579 19.5273 37.5474" stroke="white" stroke-width="1.28542" stroke-linejoin="round"/>
<path d="M6.62695 33.404C10.1105 33.4727 18.7299 32.7727 22.8668 27.9482C27.0037 23.1236 27.1056 16.7401 26.6395 14.1514" stroke="white" stroke-width="1.28243" stroke-linejoin="round"/>
<path d="M6.62695 37.4663C10.8443 37.5495 26.0976 36.2638 31.1059 30.4213C36.1143 24.5788 29.5557 15.2796 27.5935 12.9692" stroke="white" stroke-width="1.28243" stroke-linejoin="round"/>
<path d="M27.3544 36.8098L24.9043 41.2569" stroke="white" stroke-width="1.28243" stroke-linecap="round" stroke-linejoin="round"/>
<path d="M29.458 36.582L31.095 39.3804" stroke="white" stroke-width="1.28243" stroke-linecap="round" stroke-linejoin="round"/>
<ellipse cx="42.9654" cy="10.2684" rx="1.4527" ry="1.45344" fill="white"/>
<path d="M13.8145 37.9922L3.84082 47.7324" stroke="white" stroke-width="0.756132" stroke-linecap="round" stroke-linejoin="round"/>
</svg>
